PathFileType	4	(X/Y/Z)	4_coords_data.trc
DataRate	CameraRate	NumFrames	NumMarkers	Units	OrigDataRate	OrigDataStartFrame	OrigNumFrames
30.0	30.0	8	21	m	30.0	29	47
Frame#	Time	THUMB_TIP	THUMB_IP	THUMB_MCP	THUMB_CMC	INDEX_TIP	INDEX_DIP	INDEX_PIP	INDEX_MCP	MIDDLE_TIP	MIDDLE_DIP	MIDDLE_PIP	MIDDLE_MCP	RING_TIP	RING_DIP	RING_PIP	RING_MCP	PINKY_TIP	PINKY_DIP	PINKY_PIP	PINKY_MCP	WRIST
X1	Y1	Z1	X2	Y2	Z2	X3	Y3	Z3	X4	Y4	Z4	X5	Y5	Z5	X6	Y6	Z6	X7	Y7	Z7	X8	Y8	Z8	X9	Y9	Z9	X10	Y10	Z10	X11	Y11	Z11	X12	Y12	Z12	X13	Y13	Z13	X14	Y14	Z14	X15	Y15	Z15	X16	Y16	Z16	X17	Y17	Z17	X18	Y18	Z18	X19	Y19	Z19	X20	Y20	Z20	X21	Y21	Z21
27	0.9333333333333294	0.5227839338589546	-0.005176190210436915	-0.15249094094109425	0.5081770600922367	-0.006633992145591017	-0.13481287395737038	0.48085961051713855	-0.008772320813895451	-0.12004789853516687	0.47320302389732893	-0.02301653593691655	-0.07847424080743678	0.5550979187674536	0.010652746129807378	-0.15752501860967455	0.545373536057316	0.02141059161340464	-0.146675818571984	0.5297989776819274	0.033096388752376305	-0.1307734568090754	0.497866672428397	0.03467941985392631	-0.10264059368199793	0.5302962141476056	-0.008808838330333857	-0.13259618222950503	0.5433268470527036	0.003686351133007748	-0.13115644393114084	0.5473144015963793	0.028222781608302272	-0.11594222235091381	0.5143541498451976	0.029823798322543338	-0.08582235397504873	0.5364063299946348	-0.016533725923105203	-0.11796570720027039	0.5509097532743084	-0.006205258606146846	-0.11514197278408556	0.5589670980174015	0.012800085195658006	-0.10121157143788775	0.5283307315846227	0.015971101603452276	-0.07501847042372742	0.5850497026487358	-0.011448255685641784	-0.10724125965673326	0.5789027021888223	-0.0062179553362620155	-0.0921462822271012	0.5667305089727016	-0.00012758921942612744	-0.07616012659567056	0.5324740271546664	-0.00459121363550119	-0.06579417456400227	0.4622830810018609	-0.023011742144276925	-0.051989820119430985
28	0.9666666666666625	0.5174235743091898	-0.0022779771704458662	-0.15518381129260858	0.5038206354852991	-0.004904572448040434	-0.13685184324219993	0.4775111505809171	-0.0074984704064045005	-0.12042312760622623	0.4724553497754319	-0.022636250653931822	-0.07876767793403053	0.55279615550253	0.009476002420015117	-0.15868134250607593	0.5439660981812852	0.02095305396263558	-0.1478044231080312	0.5291901174317731	0.03332932031903779	-0.13166415492669534	0.49763214928335564	0.03442739317844434	-0.10308925376608041	0.5376336083205708	-0.0070494691429249245	-0.13847885808447283	0.5479825840615007	0.007080717547257698	-0.13387054763331727	0.5478599682656348	0.030281581665183244	-0.11623211177442767	0.5144226046127818	0.029237623134298785	-0.08661791275549988	0.5443201966645025	-0.014504437683894422	-0.12191007585302888	0.5566777553152713	-0.002651470503964193	-0.11627111200988252	0.5605494343208401	0.016005303767625656	-0.10023631065605265	0.5283292380991631	0.015490930419181814	-0.07581674453593001	0.5817161301275431	-0.014016772306053804	-0.10778511902601906	0.5775978439725108	-0.007670256525761032	-0.09243059341967863	0.5667805525893398	-0.0005027041202965155	-0.07592530885241061	0.5324996662651545	-0.0044107902693053536	-0.06541668636988657	0.4622830810018609	-0.023011742144276925	-0.051989820119430985
29	0.9999999999999956	0.5119808089606979	0.0002711003936126666	-0.1576715455974595	0.49954941283013343	-0.003441136032493297	-0.1387063223991504	0.474391781733146	-0.0064426515166279286	-0.12062582178698825	0.47173290818562874	-0.02232296994332683	-0.07902490980029062	0.5515745393619859	0.00922221776604315	-0.16020151052696027	0.5432113310288825	0.020890996175844112	-0.1491608422138519	0.5288784897782379	0.033367616685692214	-0.13270139400508557	0.4976623918945706	0.03382641950572818	-0.1037362282556957	0.5458846006881309	-0.004294115627331729	-0.14377378657888767	0.5527787940671288	0.01060089817729204	-0.136118157185229	0.5484819484997014	0.03177048408054339	-0.11655300191228153	0.5146780377333696	0.028355752258911626	-0.08753950256304399	0.5530368415243934	-0.011934766358685622	-0.12517668553594352	0.5624263564151505	0.0009493804070487277	-0.11676028652952344	0.5618615015182635	0.01855747972691324	-0.09915870261536247	0.5284502736900587	0.014706828344831946	-0.07671804369131402	0.5798591642211046	-0.015998754015617567	-0.10775025362907867	0.5769381186215761	-0.008943303491538934	-0.09243072000341787	0.5669071568044911	-0.001062837004872308	-0.07575468714255107	0.5325601525159799	-0.0045712162678448465	-0.06532118234540135	0.4622830810018609	-0.023011742144276925	-0.051989820119430985
30	1.0333333333333288	0.5067504338005923	0.002295575832290897	-0.159910699272584	0.49561925000418516	-0.002362929263862723	-0.1403557746355594	0.47169859163716354	-0.005672041083815915	-0.12071724408331896	0.47105316713779055	-0.02209231828743452	-0.07924619485892712	0.5515798717947511	0.009929090056188361	-0.16206662041854658	0.5431996449211463	0.02127342852532188	-0.15070538007056308	0.5288968543062658	0.033228112816141575	-0.13383749528515754	0.4979509788778027	0.03286108734758775	-0.10458250972249683	0.5544049498284619	-0.0007052574668815481	-0.1480145515694949	0.5574254994062672	0.013940927432419592	-0.13779860579127606	0.5492053447272472	0.03255227994033327	-0.1169310193261583	0.5151043868262994	0.02718349305415524	-0.08856821412976446	0.5619789782700173	-0.008946285200324366	-0.12744345137542182	0.5677612632858534	0.004271089839409603	-0.11663298528673473	0.5629285729636321	0.020241113740518513	-0.09814559986186935	0.5286865304550571	0.013626823402757116	-0.07768943887871443	0.5795643004300617	-0.017565911038760484	-0.10740067782414248	0.5769972514417805	-0.010107627593501034	-0.09220909240517014	0.5671242942608655	-0.001836628079672331	-0.07562816050898091	0.5326582838246261	-0.005089518974148777	-0.06550905598152015	0.4622830810018609	-0.023011742144276925	-0.051989820119430985
31	1.0666666666666622	0.5020731898761871	0.0037984055439258535	-0.16185903445106828	0.49230044639440673	-0.0016193091664647996	-0.14178064178242725	0.46963159477946625	-0.005160371704499345	-0.1207472387633831	0.4704841471607756	-0.02192146756326574	-0.07941651387196161	0.5528989786647236	0.011649474868083542	-0.16403710263454313	0.5440102002304258	0.02213316321336778	-0.15224380383289685	0.529303494532502	0.03292110528366121	-0.13494227365771722	0.49851955961709693	0.03156505276988342	-0.10554590369977887	0.5625405613818091	0.0033699349181723903	-0.1509602688673366	0.561722654026844	0.01683880309904895	-0.1388805082122217	0.5500617861575461	0.03260970789174611	-0.117323322112119	0.5156733462550737	0.025776429015192837	-0.0896305537082685	0.5706452379328512	-0.005693884670400107	-0.12865998718672716	0.5725006190771698	0.007043505398075189	-0.11603792495217854	0.5638296757082594	0.02098503414565478	-0.0973128482828145	0.5290192468315361	0.012294798426298326	-0.07867324854031443	0.5808336119914159	-0.01877597547624066	-0.10682659806814443	0.5777659105819012	-0.011163619129268665	-0.09180523864535003	0.5674026109698279	-0.002800608342017008	-0.07557335364320952	0.5327781192931608	-0.0059348498575311215	-0.06597103323328576	0.4622830810018608	-0.023011742144276925	-0.051989820119430985
32	1.0999999999999952	0.4981463456179388	0.004891290403412518	-0.16342621468132942	0.48971588507552855	-0.001118424871422552	-0.1429125446694013	0.4681944762863326	-0.0048295639060200735	-0.12073425774740919	0.47004971239055904	-0.021842362316415898	-0.07953944267020796	0.5552633013868182	0.014047324259942151	-0.16572050818184306	0.5455029095410645	0.023217579118124387	-0.1535286593945046	0.5300775318951467	0.03233689254782823	-0.13589614170554004	0.49931793048181317	0.030029354683543286	-0.10653360973199003	0.5699370711434859	0.007384336373106093	-0.15263397353828428	0.5656163072463554	0.01901932185369748	-0.13944465542809828	0.551078547777275	0.03189535905155194	-0.11771286383838728	0.5163764360534586	0.02417792348374692	-0.09065085077275309	0.5786683136171147	-0.002497514914028942	-0.12888211734751165	0.576605389564286	0.009038968778565581	-0.1151834353538759	0.5646628476238515	0.020755682096903372	-0.09673690993533551	0.5294308178562132	0.010769618979290074	-0.07959913132014498	0.5836792830691154	-0.019634504451733537	-0.10587623271129001	0.5792085897415408	-0.012132563184796163	-0.09115435177174289	0.5677114629912186	-0.004002707483817924	-0.07558086334530825	0.5329106753067704	-0.007054375918988387	-0.06661002462734245	0.462283081001861	-0.023011742144276925	-0.051989820119430985
33	1.1333333333333284	0.4951354938681387	0.005643059016006036	-0.16460739583079748	0.4879432501926382	-0.0008337488522937031	-0.14376698818724717	0.46736758954788504	-0.004658422657707106	-0.1207271518311846	0.4697502413249084	-0.021819698696151746	-0.07962114770475862	0.5580777099266432	0.016640482104182897	-0.166818842554786	0.5473521925436005	0.02426367803894558	-0.1543749621066996	0.5311213937210547	0.03153195271119802	-0.1366057982020377	0.500276718666885	0.028421492525396386	-0.10740704562191505	0.5763893067916425	0.011058774363951196	-0.15315165132679437	0.5690650465847622	0.020475953386922985	-0.13952550177267564	0.552221818135667	0.03060651480089316	-0.11800604706654118	0.5171515402280729	0.022524405053931607	-0.0915314737834419	0.5856602790466686	0.0003797224136384836	-0.1283138382154791	0.5800063672033706	0.010172493587516374	-0.11427336409227791	0.5654694006355837	0.01970521607985032	-0.0964412642750607	0.5298749853393675	0.009163386358027936	-0.08042164318601511	0.5876834104496432	-0.02017529237250093	-0.10421351594429146	0.5810882668192408	-0.013030238902625446	-0.09012620635704305	0.5680194069319144	-0.005410733106185117	-0.07556735847462306	0.5330376405777627	-0.008275899358696881	-0.06726372697454963	0.4622830810018609	-0.023011742144276925	-0.051989820119430985
34	1.1666666666666616	0.49285334971090844	0.006249366565147074	-0.16544664871472836	0.48675383977723297	-0.0006069052456517676	-0.14438038384823054	0.4669469637832975	-0.00455631534371681	-0.12069684899301614	0.4695931816188452	-0.021854953375412545	-0.07966460979729106	0.5607693781217673	0.0191273060475039	-0.16737710500612007	0.549196773384686	0.025192601198386733	-0.15483569303090927	0.5322267054175599	0.030645707221884533	-0.13710745959134707	0.501243480226097	0.026888932591642045	-0.10813225475837535	0.5817479285165981	0.014246066520639977	-0.1527427056075924	0.572037228015306	0.02136586487699399	-0.1392145583900662	0.5533566940045498	0.02904428072635079	-0.11820291568614302	0.5178978112759811	0.020961445232305698	-0.09225135837222026	0.5912489786092093	0.002695567320867842	-0.12721451886502644	0.5827218923880271	0.010608690277008725	-0.11344239899706407	0.5662183286544054	0.018155127773916147	-0.0963876740155361	0.5303112799270303	0.007623183226297847	-0.08107484182368416	0.5918240898818755	-0.020419293026266216	-0.10172977419972365	0.583004243764599	-0.013803942240014133	-0.08863597992753519	0.5683382255402334	-0.006834459420444139	-0.07532635041840566	0.5331520246902961	-0.009517289483000124	-0.06786866018594565	0.4622830810018608	-0.023011742144276925	-0.051989820119430985
